<?xml version="1.0" encoding="UTF-8"?>
<!DOCTYPE svg PUBLIC "-//W3C//DTD SVG 1.1//EN" "http://www.w3.org/Graphics/SVG/1.1/DTD/svg11.dtd">
<svg xmlns="http://www.w3.org/2000/svg" version="1.1" width="768px" height="715px" style="shape-rendering:geometricPrecision; text-rendering:geometricPrecision; image-rendering:optimizeQuality; fill-rule:evenodd; clip-rule:evenodd" xmlns:xlink="http://www.w3.org/1999/xlink">
<g><path style="opacity:0.997" fill="#ed6c47" d="M 380.5,-0.5 C 390.5,-0.5 400.5,-0.5 410.5,-0.5C 410.5,48.1667 410.5,96.8333 410.5,145.5C 407.546,144.572 404.546,143.739 401.5,143C 308.501,142.5 215.501,142.333 122.5,142.5C 187.362,57.4316 273.362,9.76496 380.5,-0.5 Z"/></g>
<g><path style="opacity:0.999" fill="#ff8f6a" d="M 410.5,-0.5 C 420.167,-0.5 429.833,-0.5 439.5,-0.5C 562.747,12.3415 656.581,71.3415 721,176.5C 747.345,223.234 762.845,273.234 767.5,326.5C 767.5,336.5 767.5,346.5 767.5,356.5C 654.5,356.5 541.5,356.5 428.5,356.5C 428.667,294.499 428.5,232.499 428,170.5C 425.799,159.733 419.966,151.733 410.5,146.5C 410.5,146.167 410.5,145.833 410.5,145.5C 410.5,96.8333 410.5,48.1667 410.5,-0.5 Z"/></g>
<g><path style="opacity:0.999" fill="#d56140" d="M 122.5,142.5 C 215.501,142.333 308.501,142.5 401.5,143C 404.546,143.739 407.546,144.572 410.5,145.5C 410.5,145.833 410.5,146.167 410.5,146.5C 410.5,160.5 410.5,174.5 410.5,188.5C 406.551,172.223 396.218,162.889 379.5,160.5C 290.002,159.501 200.335,159.167 110.5,159.5C 114.267,153.62 118.267,147.954 122.5,142.5 Z"/></g>
<g><path style="opacity:1" fill="#e68161" d="M 410.5,146.5 C 419.966,151.733 425.799,159.733 428,170.5C 428.5,232.499 428.667,294.499 428.5,356.5C 422.5,356.5 416.5,356.5 410.5,356.5C 410.5,300.5 410.5,244.5 410.5,188.5C 410.5,174.5 410.5,160.5 410.5,146.5 Z"/></g>
<g><path style="opacity:1" fill="#ba4f31" d="M 110.5,159.5 C 200.335,159.167 290.002,159.501 379.5,160.5C 374.968,160.182 370.634,160.515 366.5,161.5C 337.211,160.516 307.877,160.183 278.5,160.5C 222.331,160.832 166.331,160.499 110.5,159.5 Z"/></g>
<g><path style="opacity:1" fill="#c84724" d="M 110.5,159.5 C 166.331,160.499 222.331,160.832 278.5,160.5C 228.997,189.752 179.331,218.752 129.5,247.5C 124.167,247.5 118.833,247.5 113.5,247.5C 112.521,250.625 112.187,253.958 112.5,257.5C 74.8333,278.833 37.1667,300.167 -0.5,321.5C -0.5,275.833 -0.5,230.167 -0.5,184.5C 3.55766,173.274 11.2243,165.441 22.5,161C 51.7968,159.549 81.1301,159.049 110.5,159.5 Z"/></g>
<g><path style="opacity:1" fill="#c64321" d="M 278.5,160.5 C 307.877,160.183 337.211,160.516 366.5,161.5C 378.158,164.318 386.325,171.318 391,182.5C 391.494,184.134 391.66,185.801 391.5,187.5C 391.5,191.5 391.5,195.5 391.5,199.5C 349.552,223.47 307.885,247.803 266.5,272.5C 253.287,258.566 236.953,250.399 217.5,248C 188.169,247.5 158.835,247.333 129.5,247.5C 179.331,218.752 228.997,189.752 278.5,160.5 Z"/></g>
<g><path style="opacity:1" fill="#893e29" d="M 366.5,161.5 C 370.634,160.515 374.968,160.182 379.5,160.5C 396.218,162.889 406.551,172.223 410.5,188.5C 410.5,244.5 410.5,300.5 410.5,356.5C 404.5,356.5 398.5,356.5 392.5,356.5C 392.832,299.998 392.499,243.664 391.5,187.5C 391.66,185.801 391.494,184.134 391,182.5C 386.325,171.318 378.158,164.318 366.5,161.5 Z"/></g>
<g><path style="opacity:1" fill="#c5401e" d="M 391.5,199.5 C 391.833,223.176 391.5,246.843 390.5,270.5C 352.969,292.431 315.302,314.098 277.5,335.5C 279.48,323.262 279.98,310.929 279,298.5C 276.692,288.886 272.525,280.219 266.5,272.5C 307.885,247.803 349.552,223.47 391.5,199.5 Z"/></g>
<g><path style="opacity:1" fill="#fefefe" d="M 113.5,247.5 C 118.833,247.5 124.167,247.5 129.5,247.5C 158.835,247.333 188.169,247.5 217.5,248C 236.953,250.399 253.287,258.566 266.5,272.5C 272.525,280.219 276.692,288.886 279,298.5C 279.98,310.929 279.48,323.262 277.5,335.5C 271.065,357.106 257.398,372.272 236.5,381C 227.403,384.274 218.07,386.608 208.5,388C 190.836,388.5 173.17,388.667 155.5,388.5C 155.5,413.833 155.5,439.167 155.5,464.5C 141.5,464.5 127.5,464.5 113.5,464.5C 113.5,392.167 113.5,319.833 113.5,247.5 Z"/></g>
<g><path style="opacity:1" fill="#c64321" d="M 112.5,257.5 C 112.5,291.833 112.5,326.167 112.5,360.5C 74.9965,382.419 37.3299,404.086 -0.5,425.5C -0.5,390.833 -0.5,356.167 -0.5,321.5C 37.1667,300.167 74.8333,278.833 112.5,257.5 Z"/></g>
<g><path style="opacity:1" fill="#c64220" d="M 155.5,281.5 C 171.503,281.333 187.503,281.5 203.5,282C 227.77,286.298 238.27,300.798 235,325.5C 230.533,343.347 219.033,353.18 200.5,355C 185.504,355.5 170.504,355.667 155.5,355.5C 155.5,330.833 155.5,306.167 155.5,281.5 Z"/></g>
<g><path style="opacity:0.999" fill="#c03b1b" d="M 391.5,187.5 C 392.499,243.664 392.832,299.998 392.5,356.5C 391.51,362.31 391.177,368.31 391.5,374.5C 288.301,433.929 185.301,493.596 82.5,553.5C 62.1126,553.952 41.7793,553.452 21.5,552C 10.1523,547.822 2.81896,539.989 -0.5,528.5C -0.5,517.5 -0.5,506.5 -0.5,495.5C 37.329,474.42 74.9956,453.086 112.5,431.5C 112.5,442.833 112.5,454.167 112.5,465.5C 127.01,465.829 141.343,465.496 155.5,464.5C 155.5,439.167 155.5,413.833 155.5,388.5C 173.17,388.667 190.836,388.5 208.5,388C 218.07,386.608 227.403,384.274 236.5,381C 257.398,372.272 271.065,357.106 277.5,335.5C 315.302,314.098 352.969,292.431 390.5,270.5C 391.5,246.843 391.833,223.176 391.5,199.5C 391.5,195.5 391.5,191.5 391.5,187.5 Z"/></g>
<g><path style="opacity:1" fill="#7a2f1b" d="M 392.5,356.5 C 398.5,356.5 404.5,356.5 410.5,356.5C 410.5,418.5 410.5,480.5 410.5,542.5C 408.184,553.955 401.85,562.455 391.5,568C 388.167,569 384.833,570 381.5,571C 295.167,571.5 208.834,571.667 122.5,571.5C 122.5,571.167 122.5,570.833 122.5,570.5C 204.167,570.667 285.834,570.5 367.5,570C 381.545,566.081 389.712,556.914 392,542.5C 392.816,537.316 392.65,532.316 391.5,527.5C 392.488,470.529 392.821,413.529 392.5,356.5 Z"/></g>
<g><path style="opacity:1" fill="#be4a2b" d="M 410.5,356.5 C 416.5,356.5 422.5,356.5 428.5,356.5C 428.667,424.834 428.5,493.167 428,561.5C 425.658,572.997 419.158,580.997 408.5,585.5C 410.368,571.264 411.035,556.931 410.5,542.5C 410.5,480.5 410.5,418.5 410.5,356.5 Z"/></g>
<g><path style="opacity:0.998" fill="#d35230" d="M 428.5,356.5 C 541.5,356.5 654.5,356.5 767.5,356.5C 767.5,366.5 767.5,376.5 767.5,386.5C 753.512,514.912 690.512,610.745 578.5,674C 531.577,698.037 481.91,711.537 429.5,714.5C 416.5,714.5 403.5,714.5 390.5,714.5C 297.166,708.748 217.833,672.748 152.5,606.5C 229.834,606.667 307.167,606.5 384.5,606C 395.011,603.318 402.678,597.151 407.5,587.5C 407.833,586.833 408.167,586.167 408.5,585.5C 419.158,580.997 425.658,572.997 428,561.5C 428.5,493.167 428.667,424.834 428.5,356.5 Z"/></g>
<g><path style="opacity:1" fill="#c4401e" d="M 112.5,360.5 C 112.5,384.167 112.5,407.833 112.5,431.5C 74.9956,453.086 37.329,474.42 -0.5,495.5C -0.5,472.167 -0.5,448.833 -0.5,425.5C 37.3299,404.086 74.9965,382.419 112.5,360.5 Z"/></g>
<g><path style="opacity:0.999" fill="#bd3718" d="M 391.5,374.5 C 391.826,393.743 391.493,412.91 390.5,432C 321.167,472 251.833,512 182.5,552C 158.33,552.168 134.33,552.668 110.5,553.5C 101.167,553.5 91.8333,553.5 82.5,553.5C 185.301,493.596 288.301,433.929 391.5,374.5 Z"/></g>
<g><path style="opacity:1" fill="#b83316" d="M 392.5,356.5 C 392.821,413.529 392.488,470.529 391.5,527.5C 387.749,542.082 378.416,550.582 363.5,553C 279.167,553.5 194.834,553.667 110.5,553.5C 134.33,552.668 158.33,552.168 182.5,552C 251.833,512 321.167,472 390.5,432C 391.493,412.91 391.826,393.743 391.5,374.5C 391.177,368.31 391.51,362.31 392.5,356.5 Z"/></g>
<g><path style="opacity:1" fill="#eab8ab" d="M 113.5,247.5 C 113.5,319.833 113.5,392.167 113.5,464.5C 127.5,464.5 141.5,464.5 155.5,464.5C 141.343,465.496 127.01,465.829 112.5,465.5C 112.5,454.167 112.5,442.833 112.5,431.5C 112.5,407.833 112.5,384.167 112.5,360.5C 112.5,326.167 112.5,291.833 112.5,257.5C 112.187,253.958 112.521,250.625 113.5,247.5 Z"/></g>
<g><path style="opacity:1" fill="#622616" d="M 391.5,527.5 C 392.65,532.316 392.816,537.316 392,542.5C 389.712,556.914 381.545,566.081 367.5,570C 285.834,570.5 204.167,570.667 122.5,570.5C 117.775,565.397 113.775,559.731 110.5,553.5C 194.834,553.667 279.167,553.5 363.5,553C 378.416,550.582 387.749,542.082 391.5,527.5 Z"/></g>
<g><path style="opacity:1" fill="#983b22" d="M 410.5,542.5 C 411.035,556.931 410.368,571.264 408.5,585.5C 408.167,586.167 407.833,586.833 407.5,587.5C 316.815,588.828 226.148,588.828 135.5,587.5C 131.177,582.206 126.844,576.873 122.5,571.5C 208.834,571.667 295.167,571.5 381.5,571C 384.833,570 388.167,569 391.5,568C 401.85,562.455 408.184,553.955 410.5,542.5 Z"/></g>
<g><path style="opacity:1" fill="#a84125" d="M 135.5,587.5 C 226.148,588.828 316.815,588.828 407.5,587.5C 402.678,597.151 395.011,603.318 384.5,606C 307.167,606.5 229.834,606.667 152.5,606.5C 146.491,600.49 140.825,594.157 135.5,587.5 Z"/></g>
</svg>
